<svg xmlns="http://www.w3.org/2000/svg">
  <symbol id="home" viewBox="0 0 24 24"><path d="m3 10 9-7 9 7v10a1 1 0 0 1-1 1h-5v-7H9v7H4a1 1 0 0 1-1-1Z"/></symbol>
  <symbol id="chart" viewBox="0 0 24 24"><path d="M4 20V10m6 10V4m6 16v-7m4 7H2"/></symbol>
  <symbol id="users" viewBox="0 0 24 24"><path d="M16 21v-2a4 4 0 0 0-4-4H6a4 4 0 0 0-4 4v2m7-10a4 4 0 1 0 0-8 4 4 0 0 0 0 8Zm13 10v-2a4 4 0 0 0-3-3.87m-2-11.96a4 4 0 0 1 0 7.75"/></symbol>
  <symbol id="database" viewBox="0 0 24 24"><ellipse cx="12" cy="5" rx="9" ry="3"/><path d="M3 5v6c0 1.66 4.03 3 9 3s9-1.34 9-3V5M3 11v6c0 1.66 4.03 3 9 3s9-1.34 9-3v-6"/></symbol>
  <symbol id="external" viewBox="0 0 24 24"><path d="M14 3h7v7m0-7-9 9"/><path d="M18 13v6a2 2 0 0 1-2 2H5a2 2 0 0 1-2-2V8a2 2 0 0 1 2-2h6"/></symbol>
  <symbol id="spark" viewBox="0 0 24 24"><path d="m12 3 1.5 5.5L19 10l-5.5 1.5L12 17l-1.5-5.5L5 10l5.5-1.5Z"/><path d="m19 16 .7 2.3L22 19l-2.3.7L19 22l-.7-2.3L16 19l2.3-.7Z"/></symbol>
  <symbol id="calendar" viewBox="0 0 24 24"><rect x="3" y="5" width="18" height="16" rx="2"/><path d="M16 3v4M8 3v4M3 10h18"/></symbol>
  <symbol id="checklist" viewBox="0 0 24 24"><path d="m4 6 2 2 4-4M4 14l2 2 4-4M13 6h7M13 14h7M4 21h16"/></symbol>
  <symbol id="audit" viewBox="0 0 24 24"><path d="M4 4h16v16H4zM8 9h8M8 13h8M8 17h5"/></symbol>
  <symbol id="settings" viewBox="0 0 24 24"><circle cx="12" cy="12" r="3"/><path d="M19.4 15a1.7 1.7 0 0 0 .34 1.88l.06.06-2.83 2.83-.06-.06A1.7 1.7 0 0 0 15 19.4a1.7 1.7 0 0 0-1 .6 1.7 1.7 0 0 0-.4 1V21H9.6v-.09A1.7 1.7 0 0 0 8.5 19.4a1.7 1.7 0 0 0-1.88.34l-.06.06-2.83-2.83.06-.06A1.7 1.7 0 0 0 4.6 15a1.7 1.7 0 0 0-.6-1 1.7 1.7 0 0 0-1-.4H3V9.6h.09A1.7 1.7 0 0 0 4.6 8.5a1.7 1.7 0 0 0-.34-1.88l-.06-.06 2.83-2.83.06.06A1.7 1.7 0 0 0 9 4.6a1.7 1.7 0 0 0 1-.6 1.7 1.7 0 0 0 .4-1V3h4v.09A1.7 1.7 0 0 0 15.5 4.6a1.7 1.7 0 0 0 1.88-.34l.06-.06 2.83 2.83-.06.06A1.7 1.7 0 0 0 19.4 9c.1.4.3.75.6 1 .28.24.63.38 1 .4h.1v4h-.1a1.7 1.7 0 0 0-1.6.6Z"/></symbol>
  <symbol id="menu" viewBox="0 0 24 24"><path d="M4 7h16M4 12h16M4 17h16"/></symbol>
  <symbol id="bell" viewBox="0 0 24 24"><path d="M18 8a6 6 0 0 0-12 0c0 7-3 7-3 9h18c0-2-3-2-3-9m-8 13h4"/></symbol>
  <symbol id="logout" viewBox="0 0 24 24"><path d="M10 17l5-5-5-5m5 5H3m11-9h5a2 2 0 0 1 2 2v14a2 2 0 0 1-2 2h-5"/></symbol>
  <symbol id="search" viewBox="0 0 24 24"><circle cx="11" cy="11" r="7"/><path d="m20 20-4-4"/></symbol>
  <symbol id="download" viewBox="0 0 24 24"><path d="M12 3v12m-5-5 5 5 5-5M4 21h16"/></symbol>
  <symbol id="upload" viewBox="0 0 24 24"><path d="M12 21V9m-5 5 5-5 5 5M4 3h16"/></symbol>
  <symbol id="alert" viewBox="0 0 24 24"><path d="M12 3 2 21h20ZM12 9v5m0 3h.01"/></symbol>
  <symbol id="info" viewBox="0 0 24 24"><circle cx="12" cy="12" r="9"/><path d="M12 11v6m0-10h.01"/></symbol>
  <symbol id="check" viewBox="0 0 24 24"><path d="m4 12 5 5L20 6"/></symbol>
  <symbol id="clock" viewBox="0 0 24 24"><circle cx="12" cy="12" r="9"/><path d="M12 7v5l3 2"/></symbol>
  <symbol id="arrow" viewBox="0 0 24 24"><path d="M5 12h14m-5-5 5 5-5 5"/></symbol>
  <symbol id="chevron" viewBox="0 0 24 24"><path d="m9 18 6-6-6-6"/></symbol>
  <symbol id="close" viewBox="0 0 24 24"><path d="m6 6 12 12M18 6 6 18"/></symbol>
</svg>
